<svg class="svg-animation show-on-scroll-item is-visible" xmlns="http://www.w3.org/2000/svg" width="73" height="68" viewBox="0 0 73 68" style="transition-delay: 0.9s; animation-delay: 1.5s;">
<defs>
<linearGradient id="a" x1="79.946%" x2="9.628%" y1="34.927%" y2="62.491%">
<stop offset="0%" stop-color="#FDBE10"></stop>
<stop offset="15.65%" stop-color="#F2671E"></stop>
<stop offset="22.75%" stop-color="#ED4523"></stop>
<stop offset="29.88%" stop-color="#CC3D43"></stop>
<stop offset="40.04%" stop-color="#A3336B"></stop>
<stop offset="48.06%" stop-color="#892C84"></stop>
<stop offset="52.88%" stop-color="#802A8D"></stop>
<stop offset="79.47%" stop-color="#2483C5"></stop>
<stop offset="100%" stop-color="#00AC4C"></stop>
</linearGradient>
</defs>
<g fill="none" fill-rule="evenodd" stroke-width="1.3">
<path stroke="#000" stroke-linecap="round" d="M68.04 56.98H4.38C2.51 56.98 1 55.47 1 53.6V4.38C1 2.51 2.51 1 4.38 1h63.66c1.87 0 3.38 1.51 3.38 3.38V53.6a3.37 3.37 0 0 1-3.38 3.38z"></path>
<path stroke="#000" stroke-linecap="round" d="M65.19 51.29H7.24c-.18 0-.33-.15-.33-.33V7.02c0-.18.15-.33.33-.33h57.95c.18 0 .33.15.33.33v43.94c0 .18-.15.33-.33.33z"></path>
<g stroke="#000">
<path d="M27.37 57.63v8.99"></path>
<path stroke-linecap="round" d="M51.32 66.93H21.16"></path>
<path d="M44.98 57.63v8.99"></path>
</g>
<path stroke="url(#a)" stroke-linecap="round" d="M12.92 13.34h5.7m-5.74 4.71h5.7m-5.64 4.73h5.7m3.99-9.45h5.7m-5.74 4.7h5.7m4.1-4.7h5.7m-5.74 4.7h5.7m4.07 0h5.7m-25.17 4.74h5.7m14.36 19.88l4.92-10.9m3.08 10.43l6.84-4.87m-6.86-4.92l6.85 4.85m-17.95 4.91l-6.84-4.87m6.86-4.92l-6.85 4.85M12.9 27.48h5.7" transform="translate(1 1)"></path>
</g>
</svg>