<svg class="svg-animation show-on-scroll-item is-visible" xmlns="http://www.w3.org/2000/svg" width="76" height="72" viewBox="0 0 76 72" style="transition-delay: 1.2s; animation-delay: 2s;">
<defs>
<linearGradient id="a" x1="87.329%" x2="5.065%" y1="44.978%" y2="71.868%">
<stop offset="0%" stop-color="#FDBE10"></stop>
<stop offset="15.65%" stop-color="#F2671E"></stop>
<stop offset="22.75%" stop-color="#ED4523"></stop>
<stop offset="29.88%" stop-color="#CC3D43"></stop>
<stop offset="40.04%" stop-color="#A3336B"></stop>
<stop offset="48.06%" stop-color="#892C84"></stop>
<stop offset="52.88%" stop-color="#802A8D"></stop>
<stop offset="79.47%" stop-color="#2483C5"></stop>
<stop offset="100%" stop-color="#00AC4C"></stop>
</linearGradient>
</defs>
<g fill="none" fill-rule="evenodd" stroke-linecap="round" stroke-width="1.3" transform="translate(1 1)">
<path stroke="#000" d="M19.81 70.01v-4.37c0-.19.16-.35.35-.35h33.89c.19 0 .35.16.35.35v4.37M23.85 64.57v-4.92c0-.22.12-.4.27-.4h26.3c.15 0 .27.18.27.4v4.92M27.12 59.2s.31-11.38-8.34-17.88a.483.483 0 0 1-.14-.62L37.25 6.64"></path>
<path stroke="#000" d="M47.24 59.25s-.31-11.38 8.34-17.88c.19-.14.26-.41.14-.62L37.11 6.69M40.36 3.43h27.52M6.62 3.43H33.85M37.1 6.52v23.3"></path>
<path stroke="url(#a)" d="M40.17 6.52h-6.12a.2.2 0 0 1-.2-.2V.2c0-.11.09-.2.2-.2h6.12c.11 0 .2.09.2.2v6.12a.2.2 0 0 1-.2.2zM74.2 41.81v-6.12a.2.2 0 0 0-.2-.2h-6.12a.2.2 0 0 0-.2.2v6.12c0 .11.09.2.2.2H74a.2.2 0 0 0 .2-.2zm-67.68 0v-6.12a.2.2 0 0 0-.2-.2H.2a.2.2 0 0 0-.2.2v6.12c0 .11.09.2.2.2h6.12a.2.2 0 0 0 .2-.2zM33.85 3.4c-.11 0-.22.01-.33.03C16.37 5 3 17.87 3 35.49m68.19 0C71.19 17.87 57.82 5 40.67 3.43c-.1-.02-.21-.03-.31-.03"></path>
<circle cx="3.41" cy="3.43" r="3.21" stroke="#000"></circle>
<circle cx="71.09" cy="3.43" r="3.21" stroke="#000"></circle>
<circle cx="37.25" cy="33.04" r="3.21" stroke="#000"></circle>
</g>
</svg>